<svg xmlns="http://www.w3.org/2000/svg" viewBox="0 0 712 116" width="712" height="116">
  <rect width="712" height="116" fill="#121212"/>
  <rect x="16" y="16" width="72" height="40" rx="4" fill="#121212"/>
  <text x="52" y="31" font-family="ui-monospace, monospace" font-size="9" fill="#ffffff" text-anchor="middle">bg</text>
  <text x="52" y="45" font-family="ui-monospace, monospace" font-size="9" fill="#ffffff" text-anchor="middle">#121212</text>
  <rect x="92" y="16" width="72" height="40" rx="4" fill="#080808"/>
  <text x="128" y="31" font-family="ui-monospace, monospace" font-size="9" fill="#ffffff" text-anchor="middle">gray1</text>
  <text x="128" y="45" font-family="ui-monospace, monospace" font-size="9" fill="#ffffff" text-anchor="middle">#080808</text>
  <rect x="168" y="16" width="72" height="40" rx="4" fill="#191919"/>
  <text x="204" y="31" font-family="ui-monospace, monospace" font-size="9" fill="#ffffff" text-anchor="middle">gray2</text>
  <text x="204" y="45" font-family="ui-monospace, monospace" font-size="9" fill="#ffffff" text-anchor="middle">#191919</text>
  <rect x="244" y="16" width="72" height="40" rx="4" fill="#2a2a2a"/>
  <text x="280" y="31" font-family="ui-monospace, monospace" font-size="9" fill="#ffffff" text-anchor="middle">gray3</text>
  <text x="280" y="45" font-family="ui-monospace, monospace" font-size="9" fill="#ffffff" text-anchor="middle">#2a2a2a</text>
  <rect x="320" y="16" width="72" height="40" rx="4" fill="#444444"/>
  <text x="356" y="31" font-family="ui-monospace, monospace" font-size="9" fill="#ffffff" text-anchor="middle">gray4</text>
  <text x="356" y="45" font-family="ui-monospace, monospace" font-size="9" fill="#ffffff" text-anchor="middle">#444444</text>
  <rect x="396" y="16" width="72" height="40" rx="4" fill="#555555"/>
  <text x="432" y="31" font-family="ui-monospace, monospace" font-size="9" fill="#ffffff" text-anchor="middle">gray5</text>
  <text x="432" y="45" font-family="ui-monospace, monospace" font-size="9" fill="#ffffff" text-anchor="middle">#555555</text>
  <rect x="472" y="16" width="72" height="40" rx="4" fill="#7a7a7a"/>
  <text x="508" y="31" font-family="ui-monospace, monospace" font-size="9" fill="#ffffff" text-anchor="middle">gray6</text>
  <text x="508" y="45" font-family="ui-monospace, monospace" font-size="9" fill="#ffffff" text-anchor="middle">#7a7a7a</text>
  <rect x="548" y="16" width="72" height="40" rx="4" fill="#aaaaaa"/>
  <text x="584" y="31" font-family="ui-monospace, monospace" font-size="9" fill="#ffffff" text-anchor="middle">gray7</text>
  <text x="584" y="45" font-family="ui-monospace, monospace" font-size="9" fill="#ffffff" text-anchor="middle">#aaaaaa</text>
  <rect x="624" y="16" width="72" height="40" rx="4" fill="#cccccc"/>
  <text x="660" y="31" font-family="ui-monospace, monospace" font-size="9" fill="#000000" text-anchor="middle">gray8</text>
  <text x="660" y="45" font-family="ui-monospace, monospace" font-size="9" fill="#000000" text-anchor="middle">#cccccc</text>
  <rect x="16" y="60" width="72" height="40" rx="4" fill="#dddddd"/>
  <text x="52" y="75" font-family="ui-monospace, monospace" font-size="9" fill="#000000" text-anchor="middle">gray9</text>
  <text x="52" y="89" font-family="ui-monospace, monospace" font-size="9" fill="#000000" text-anchor="middle">#dddddd</text>
  <rect x="92" y="60" width="72" height="40" rx="4" fill="#f1f1f1"/>
  <text x="128" y="75" font-family="ui-monospace, monospace" font-size="9" fill="#000000" text-anchor="middle">gray10</text>
  <text x="128" y="89" font-family="ui-monospace, monospace" font-size="9" fill="#000000" text-anchor="middle">#f1f1f1</text>
  <rect x="168" y="60" width="72" height="40" rx="4" fill="#cccccc"/>
  <text x="204" y="75" font-family="ui-monospace, monospace" font-size="9" fill="#000000" text-anchor="middle">fg</text>
  <text x="204" y="89" font-family="ui-monospace, monospace" font-size="9" fill="#000000" text-anchor="middle">#cccccc</text>
  <rect x="244" y="60" width="72" height="40" rx="4" fill="#ffffff"/>
  <text x="280" y="75" font-family="ui-monospace, monospace" font-size="9" fill="#000000" text-anchor="middle">white</text>
  <text x="280" y="89" font-family="ui-monospace, monospace" font-size="9" fill="#000000" text-anchor="middle">#ffffff</text>
  <rect x="320" y="60" width="72" height="40" rx="4" fill="#1bfd9c"/>
  <text x="356" y="75" font-family="ui-monospace, monospace" font-size="9" fill="#000000" text-anchor="middle">glow</text>
  <text x="356" y="89" font-family="ui-monospace, monospace" font-size="9" fill="#000000" text-anchor="middle">#1bfd9c</text>
  <rect x="396" y="60" width="72" height="40" rx="4" fill="#708090"/>
  <text x="432" y="75" font-family="ui-monospace, monospace" font-size="9" fill="#ffffff" text-anchor="middle">lack</text>
  <text x="432" y="89" font-family="ui-monospace, monospace" font-size="9" fill="#ffffff" text-anchor="middle">#708090</text>
  <rect x="472" y="60" width="72" height="40" rx="4" fill="#deeeed"/>
  <text x="508" y="75" font-family="ui-monospace, monospace" font-size="9" fill="#000000" text-anchor="middle">luster</text>
  <text x="508" y="89" font-family="ui-monospace, monospace" font-size="9" fill="#000000" text-anchor="middle">#deeeed</text>
  <rect x="548" y="60" width="72" height="40" rx="4" fill="#b2d8d8"/>
  <text x="584" y="75" font-family="ui-monospace, monospace" font-size="9" fill="#000000" text-anchor="middle">blue1</text>
  <text x="584" y="89" font-family="ui-monospace, monospace" font-size="9" fill="#000000" text-anchor="middle">#b2d8d8</text>
  <rect x="624" y="60" width="72" height="40" rx="4" fill="#66b2b2"/>
  <text x="660" y="75" font-family="ui-monospace, monospace" font-size="9" fill="#ffffff" text-anchor="middle">blue2</text>
  <text x="660" y="89" font-family="ui-monospace, monospace" font-size="9" fill="#ffffff" text-anchor="middle">#66b2b2</text>
</svg>